<svg width="732" height="117" viewBox="0 0 732 117" fill="none" xmlns="http://www.w3.org/2000/svg">
<path d="M30.7897 75.5337C26.4148 69.4354 23.7468 62.9892 23.7468 56.3772C23.7468 49.7652 26.4148 43.3354 30.7897 37.2206C34.4188 32.1497 42.3234 24.0132 51.5868 15.7606C52.0011 15.396 51.9845 14.7497 51.5537 14.4183C44.7428 8.86687 38.1142 4.17716 33.4245 2.07258C20.8468 -3.61142 1.6571 2.66915 1.6571 18.0309V94.74C1.6571 110.118 22.1725 116.399 33.6234 110.499C37.816 108.329 44.5605 103.191 51.62 97.292C52.0342 96.944 52.0508 96.3143 51.6531 95.9663C48.1565 92.7846 33.5405 79.3617 30.7897 75.5337Z" fill="#E3632A"/>
<path d="M82.8571 2.0562C95.4513 -3.61123 114.641 2.66934 114.641 18.0311V94.7402C114.641 110.118 94.1256 116.399 82.6748 110.5C71.2239 104.6 40.7656 76.5448 36.9045 71.159C29.9776 61.5145 29.9776 51.2568 36.9045 41.6122C43.8313 31.9676 70.2628 7.72363 82.8571 2.0562Z" fill="#E3632A"/>
<path d="M29.1326 77.1909C24.7577 71.0926 22.0897 64.6463 22.0897 58.0343C22.0897 51.4223 24.7577 44.9926 29.1326 38.8777C32.7617 33.8069 40.6663 25.6703 49.9297 17.4177C50.344 17.0532 50.3274 16.4069 49.8966 16.0755C43.0857 10.524 36.4571 5.83432 31.7674 3.72975C19.1897 -1.95425 0 4.32632 0 19.688V96.3972C0 111.775 20.5154 118.056 31.9663 112.157C36.1589 109.986 42.9034 104.849 49.9629 98.9492C50.3771 98.6012 50.3937 97.9715 49.996 97.6235C46.4994 94.4417 31.8834 81.0189 29.1326 77.1909Z" fill="#36CD74"/>
<path d="M81.2 3.71336C93.7942 -1.95406 112.984 4.32651 112.984 19.6882V96.3974C112.984 111.776 92.4685 118.056 81.0177 112.157C69.5668 106.257 39.1085 78.2019 35.2474 72.8162C28.3205 63.1716 28.3205 52.9139 35.2474 43.2694C42.1742 33.6248 68.6057 9.38079 81.2 3.71336Z" fill="#36CD74"/>
<path d="M32.4469 77.1909C28.072 71.0926 25.404 64.6463 25.404 58.0343C25.404 51.4223 28.072 44.9926 32.4469 38.8777C36.076 33.8069 43.9806 25.6703 53.244 17.4177C53.6583 17.0532 53.6418 16.4069 53.2109 16.0755C46.4 10.524 39.7715 5.83432 35.0818 3.72975C22.504 -1.95425 3.31433 4.32632 3.31433 19.688V96.3972C3.31433 111.775 23.8298 118.056 35.2806 112.157C39.4732 109.986 46.2178 104.849 53.2772 98.9492C53.6915 98.6012 53.708 97.9715 53.3103 97.6235C49.8138 94.4417 35.1978 81.0189 32.4469 77.1909Z" fill="#FEAD2E"/>
<path d="M84.5143 3.71336C97.1086 -1.95406 116.298 4.32651 116.298 19.6882V96.3974C116.298 111.776 95.7829 118.056 84.332 112.157C72.8811 106.257 42.4229 78.2019 38.5617 72.8162C31.6349 63.1716 31.6349 52.9139 38.5617 43.2694C45.4886 33.6248 71.92 9.38079 84.5143 3.71336Z" fill="#FEAD2E"/>
<path d="M30.7897 78.848C26.4148 72.7497 23.7468 66.3034 23.7468 59.6914C23.7468 53.0794 26.4148 46.6497 30.7897 40.5349C34.4188 35.464 42.3234 27.3274 51.5868 19.0749C52.0011 18.7103 51.9845 18.064 51.5537 17.7326C44.7428 12.1811 38.1142 7.49143 33.4245 5.38685C20.8468 -0.297146 1.6571 5.98342 1.6571 21.3451V98.0543C1.6571 113.433 22.1725 119.713 33.6234 113.814C37.816 111.643 44.5605 106.506 51.62 100.606C52.0342 100.258 52.0508 99.6286 51.6531 99.2806C48.1565 96.0989 33.5405 82.676 30.7897 78.848Z" fill="white"/>
<path d="M82.8571 5.37047C95.4513 -0.296959 114.641 5.98361 114.641 21.3453V98.0545C114.641 113.433 94.1256 119.713 82.6748 113.814C71.2239 107.914 40.7656 79.859 36.9045 74.4733C29.9776 64.8287 29.9776 54.571 36.9045 44.9265C43.8313 35.2819 70.2628 11.0379 82.8571 5.37047Z" fill="white"/>
<path d="M169.824 31.9014C175.243 31.9014 179.783 33.8071 183.413 37.6019C187.042 41.4134 188.865 46.0865 188.865 51.6711C188.865 57.2557 187.042 61.9288 183.413 65.7402C179.783 69.5517 175.243 71.4408 169.824 71.4408H154.114V31.9014H169.824ZM169.824 63.9837C173.254 63.9837 176.038 62.8402 178.193 60.5699C180.347 58.2997 181.407 55.3334 181.407 51.6711C181.407 48.0088 180.33 45.0591 178.193 42.7722C176.038 40.5019 173.254 39.3585 169.824 39.3585H161.919V63.9837H169.824Z" fill="#E3632A"/>
<path d="M201.343 48.0585C202.022 46.2522 203.149 44.8934 204.707 43.9985C206.265 43.0871 208.005 42.6396 209.927 42.6396V50.7762C207.706 50.5111 205.718 50.9585 203.961 52.1351C202.205 53.2951 201.326 55.2339 201.326 57.9517V71.4574H194.035V43.2031H201.326V48.0585H201.343Z" fill="#E3632A"/>
<path d="M237.154 67.9111C234.254 70.7945 230.707 72.2362 226.531 72.2362C222.355 72.2362 218.826 70.7945 215.942 67.9111C213.059 65.0277 211.617 61.4979 211.617 57.3219C211.617 53.1459 213.059 49.6162 215.942 46.7328C218.826 43.8494 222.355 42.4077 226.531 42.4077C230.707 42.4077 234.254 43.8494 237.154 46.7328C240.054 49.6162 241.495 53.1459 241.495 57.3219C241.495 61.4979 240.037 65.0277 237.154 67.9111ZM221.079 62.9065C222.521 64.3814 224.344 65.1105 226.531 65.1105C228.719 65.1105 230.542 64.3814 232.016 62.9065C233.491 61.4317 234.22 59.5757 234.22 57.3219C234.22 55.0682 233.491 53.1957 232.016 51.7374C230.542 50.2625 228.719 49.5334 226.531 49.5334C224.344 49.5334 222.521 50.2625 221.079 51.7374C219.621 53.2122 218.909 55.0682 218.909 57.3219C218.909 59.5757 219.638 61.4482 221.079 62.9065Z" fill="#E3632A"/>
<path d="M250.262 39.8059C249.052 39.8059 248.008 39.3585 247.13 38.4802C246.251 37.6019 245.804 36.5579 245.804 35.3482C245.804 34.1385 246.251 33.0945 247.13 32.1831C248.008 31.2716 249.052 30.8242 250.262 30.8242C251.471 30.8242 252.565 31.2716 253.46 32.1831C254.338 33.0945 254.786 34.1385 254.786 35.3482C254.786 36.5579 254.338 37.6019 253.46 38.4802C252.582 39.3585 251.505 39.8059 250.262 39.8059ZM246.649 71.4408V43.2031H253.941V71.4574H246.649V71.4408Z" fill="#E3632A"/>
<path d="M282.012 31.9014H289.304V71.4408H282.012V68.1099C279.858 70.8608 276.809 72.2362 272.865 72.2362C268.921 72.2362 265.806 70.7945 263.121 67.9111C260.42 65.0277 259.078 61.4979 259.078 57.3219C259.078 53.1459 260.42 49.6162 263.121 46.7328C265.806 43.8494 269.054 42.4077 272.865 42.4077C276.677 42.4077 279.875 43.7831 282.012 46.5339V31.9014ZM268.59 63.0557C270.081 64.5471 271.954 65.2928 274.207 65.2928C276.461 65.2928 278.334 64.5471 279.792 63.0557C281.267 61.5642 281.996 59.6585 281.996 57.3219C281.996 54.9854 281.267 53.0797 279.792 51.5882C278.317 50.0968 276.461 49.3511 274.207 49.3511C271.954 49.3511 270.081 50.0968 268.59 51.5882C267.098 53.0797 266.352 54.9854 266.352 57.3219C266.352 59.6585 267.098 61.5642 268.59 63.0557Z" fill="#E3632A"/>
<path d="M327.203 71.4574H318.221L304.102 52.9305V71.4574H296.314V31.9014H304.102V49.3345L317.658 31.9014H326.639L312.007 51.1077L327.203 71.4408V71.4574Z" fill="#E3632A"/>
<path d="M349.641 43.2031H356.932V71.4573H349.641V68.1265C347.453 70.8773 344.387 72.2528 340.427 72.2528C336.466 72.2528 333.434 70.8111 330.733 67.9276C328.031 65.0442 326.689 61.5145 326.689 57.3385C326.689 53.1625 328.031 49.6328 330.733 46.7493C333.417 43.8659 336.649 42.4242 340.427 42.4242C344.387 42.4242 347.453 43.7996 349.641 46.5505V43.2196V43.2031ZM336.201 63.0556C337.676 64.547 339.532 65.2928 341.786 65.2928C344.039 65.2928 345.912 64.547 347.403 63.0556C348.895 61.5642 349.641 59.6585 349.641 57.3219C349.641 54.9853 348.895 53.0796 347.403 51.5882C345.912 50.0968 344.039 49.3511 341.786 49.3511C339.532 49.3511 337.659 50.0968 336.201 51.5882C334.726 53.0796 333.997 54.9853 333.997 57.3219C333.997 59.6585 334.726 61.5642 336.201 63.0556Z" fill="#E3632A"/>
<path d="M367.14 39.8059C365.93 39.8059 364.886 39.3585 364.008 38.4802C363.13 37.6019 362.682 36.5579 362.682 35.3482C362.682 34.1385 363.13 33.0945 364.008 32.1831C364.886 31.2716 365.93 30.8242 367.14 30.8242C368.35 30.8242 369.443 31.2716 370.338 32.1831C371.217 33.0945 371.664 34.1385 371.664 35.3482C371.664 36.5579 371.217 37.6019 370.338 38.4802C369.46 39.3585 368.383 39.8059 367.14 39.8059ZM363.527 71.4408V43.2031H370.819V71.4574H363.527V71.4408Z" fill="#E3632A"/>
<path d="M399.123 43.2031H406.248V70.0985C406.248 74.4734 404.807 77.8042 401.923 80.0911C399.04 82.3945 395.56 83.5379 391.5 83.5379C388.451 83.5379 385.766 82.9579 383.446 81.7814C381.126 80.6214 379.353 78.8979 378.11 76.6442L384.324 73.0814C385.75 75.7162 388.219 77.0419 391.732 77.0419C394.035 77.0419 395.842 76.4454 397.151 75.2357C398.477 74.0259 399.123 72.3191 399.123 70.0985V67.0494C396.969 69.9162 393.969 71.3414 390.091 71.3414C386.214 71.3414 382.75 69.9328 380.066 67.1322C377.365 64.3316 376.022 60.9014 376.022 56.8745C376.022 52.8477 377.381 49.4671 380.082 46.6499C382.8 43.8328 386.131 42.4077 390.075 42.4077C394.019 42.4077 396.968 43.8328 399.106 46.6997V43.2031H399.123ZM385.534 62.4425C387.026 63.9008 388.915 64.6134 391.218 64.6134C393.522 64.6134 395.411 63.8842 396.902 62.4425C398.394 61.0008 399.139 59.1448 399.139 56.8745C399.139 54.6042 398.394 52.8145 396.902 51.3728C395.411 49.9311 393.522 49.2019 391.218 49.2019C388.915 49.2019 387.026 49.9311 385.534 51.3728C384.043 52.8311 383.297 54.6539 383.297 56.8745C383.297 59.0951 384.043 60.9842 385.534 62.4425Z" fill="#E3632A"/>
<path d="M416.456 39.8059C415.247 39.8059 414.203 39.3585 413.324 38.4802C412.446 37.6019 411.999 36.5579 411.999 35.3482C411.999 34.1385 412.446 33.0945 413.324 32.1831C414.203 31.2716 415.247 30.8242 416.456 30.8242C417.666 30.8242 418.76 31.2716 419.655 32.1831C420.533 33.0945 420.98 34.1385 420.98 35.3482C420.98 36.5579 420.533 37.6019 419.655 38.4802C418.777 39.3585 417.699 39.8059 416.456 39.8059ZM412.844 71.4408V43.2031H420.135V71.4574H412.844V71.4408Z" fill="#E3632A"/>
<path d="M168.167 33.5585C173.586 33.5585 178.126 35.4642 181.755 39.2591C185.385 43.0705 187.207 47.7437 187.207 53.3282C187.207 58.9128 185.385 63.586 181.755 67.3974C178.126 71.2088 173.586 73.098 168.167 73.098H152.457V33.5585H168.167ZM168.167 65.6408C171.597 65.6408 174.381 64.4974 176.535 62.2271C178.69 59.9568 179.75 56.9905 179.75 53.3282C179.75 49.666 178.673 46.7162 176.535 44.4294C174.381 42.1591 171.597 41.0157 168.167 41.0157H160.262V65.6408H168.167Z" fill="#36CD74"/>
<path d="M199.686 49.7157C200.365 47.9094 201.492 46.5505 203.05 45.6557C204.607 44.7442 206.347 44.2968 208.27 44.2968V52.4334C206.049 52.1682 204.061 52.6157 202.304 53.7922C200.547 54.9522 199.669 56.8911 199.669 59.6088V73.1145H192.378V44.8602H199.669V49.7157H199.686Z" fill="#36CD74"/>
<path d="M235.497 69.5682C232.597 72.4517 229.05 73.8934 224.874 73.8934C220.698 73.8934 217.169 72.4517 214.285 69.5682C211.402 66.6848 209.96 63.1551 209.96 58.9791C209.96 54.8031 211.402 51.2734 214.285 48.39C217.169 45.5065 220.698 44.0648 224.874 44.0648C229.05 44.0648 232.597 45.5065 235.497 48.39C238.397 51.2734 239.838 54.8031 239.838 58.9791C239.838 63.1551 238.38 66.6848 235.497 69.5682ZM219.422 64.5637C220.864 66.0385 222.687 66.7677 224.874 66.7677C227.062 66.7677 228.885 66.0385 230.359 64.5637C231.834 63.0888 232.563 61.2328 232.563 58.9791C232.563 56.7254 231.834 54.8528 230.359 53.3945C228.885 51.9197 227.062 51.1905 224.874 51.1905C222.687 51.1905 220.864 51.9197 219.422 53.3945C217.964 54.8694 217.251 56.7254 217.251 58.9791C217.251 61.2328 217.981 63.1054 219.422 64.5637Z" fill="#36CD74"/>
<path d="M248.605 41.4631C247.395 41.4631 246.351 41.0157 245.473 40.1374C244.594 39.2591 244.147 38.2151 244.147 37.0054C244.147 35.7957 244.594 34.7517 245.473 33.8402C246.351 32.9288 247.395 32.4814 248.605 32.4814C249.814 32.4814 250.908 32.9288 251.803 33.8402C252.681 34.7517 253.129 35.7957 253.129 37.0054C253.129 38.2151 252.681 39.2591 251.803 40.1374C250.925 41.0157 249.847 41.4631 248.605 41.4631ZM244.992 73.098V44.8602H252.283V73.1145H244.992V73.098Z" fill="#36CD74"/>
<path d="M280.355 33.5585H287.647V73.098H280.355V69.7671C278.201 72.518 275.152 73.8934 271.208 73.8934C267.264 73.8934 264.149 72.4517 261.464 69.5682C258.763 66.6848 257.421 63.1551 257.421 58.9791C257.421 54.8031 258.763 51.2734 261.464 48.39C264.149 45.5065 267.397 44.0648 271.208 44.0648C275.019 44.0648 278.218 45.4402 280.355 48.1911V33.5585ZM266.933 64.7128C268.424 66.2042 270.297 66.95 272.55 66.95C274.804 66.95 276.677 66.2042 278.135 64.7128C279.61 63.2214 280.339 61.3157 280.339 58.9791C280.339 56.6425 279.61 54.7368 278.135 53.2454C276.66 51.754 274.804 51.0082 272.55 51.0082C270.297 51.0082 268.424 51.754 266.933 53.2454C265.441 54.7368 264.695 56.6425 264.695 58.9791C264.695 61.3157 265.441 63.2214 266.933 64.7128Z" fill="#36CD74"/>
<path d="M325.546 73.1145H316.564L302.445 54.5877V73.1145H294.657V33.5585H302.445V50.9917L316.001 33.5585H324.982L310.35 52.7648L325.546 73.098V73.1145Z" fill="#36CD74"/>
<path d="M347.983 44.8602H355.275V73.1145H347.983V69.7836C345.796 72.5345 342.73 73.9099 338.77 73.9099C334.809 73.9099 331.777 72.4682 329.075 69.5848C326.374 66.7014 325.032 63.1716 325.032 58.9956C325.032 54.8196 326.374 51.2899 329.075 48.4065C331.76 45.5231 334.991 44.0814 338.77 44.0814C342.73 44.0814 345.796 45.4568 347.983 48.2076V44.8768V44.8602ZM334.544 64.7128C336.019 66.2042 337.875 66.9499 340.129 66.9499C342.382 66.9499 344.255 66.2042 345.746 64.7128C347.238 63.2214 347.983 61.3156 347.983 58.9791C347.983 56.6425 347.238 54.7368 345.746 53.2454C344.255 51.7539 342.382 51.0082 340.129 51.0082C337.875 51.0082 336.002 51.7539 334.544 53.2454C333.069 54.7368 332.34 56.6425 332.34 58.9791C332.34 61.3156 333.069 63.2214 334.544 64.7128Z" fill="#36CD74"/>
<path d="M365.483 41.4631C364.273 41.4631 363.229 41.0157 362.351 40.1374C361.473 39.2591 361.025 38.2151 361.025 37.0054C361.025 35.7957 361.473 34.7517 362.351 33.8402C363.229 32.9288 364.273 32.4814 365.483 32.4814C366.693 32.4814 367.786 32.9288 368.681 33.8402C369.559 34.7517 370.007 35.7957 370.007 37.0054C370.007 38.2151 369.559 39.2591 368.681 40.1374C367.803 41.0157 366.726 41.4631 365.483 41.4631ZM361.87 73.098V44.8602H369.162V73.1145H361.87V73.098Z" fill="#36CD74"/>
<path d="M397.466 44.8602H404.591V71.7557C404.591 76.1305 403.15 79.4614 400.266 81.7482C397.383 84.0517 393.903 85.1951 389.843 85.1951C386.794 85.1951 384.109 84.6151 381.789 83.4385C379.469 82.2785 377.696 80.5551 376.453 78.3014L382.667 74.7385C384.093 77.3734 386.562 78.6991 390.075 78.6991C392.378 78.6991 394.185 78.1025 395.494 76.8928C396.819 75.6831 397.466 73.9762 397.466 71.7557V68.7065C395.311 71.5734 392.312 72.9985 388.434 72.9985C384.557 72.9985 381.093 71.59 378.409 68.7894C375.707 65.9888 374.365 62.5585 374.365 58.5317C374.365 54.5048 375.724 51.1242 378.425 48.3071C381.143 45.49 384.474 44.0648 388.418 44.0648C392.362 44.0648 395.311 45.49 397.449 48.3568V44.8602H397.466ZM383.877 64.0997C385.369 65.558 387.258 66.2705 389.561 66.2705C391.865 66.2705 393.754 65.5414 395.245 64.0997C396.737 62.658 397.482 60.802 397.482 58.5317C397.482 56.2614 396.737 54.4717 395.245 53.03C393.754 51.5882 391.865 50.8591 389.561 50.8591C387.258 50.8591 385.369 51.5882 383.877 53.03C382.386 54.4882 381.64 56.3111 381.64 58.5317C381.64 60.7522 382.386 62.6414 383.877 64.0997Z" fill="#36CD74"/>
<path d="M414.799 41.4631C413.59 41.4631 412.546 41.0157 411.667 40.1374C410.789 39.2591 410.342 38.2151 410.342 37.0054C410.342 35.7957 410.789 34.7517 411.667 33.8402C412.546 32.9288 413.59 32.4814 414.799 32.4814C416.009 32.4814 417.103 32.9288 417.998 33.8402C418.876 34.7517 419.323 35.7957 419.323 37.0054C419.323 38.2151 418.876 39.2591 417.998 40.1374C417.119 41.0157 416.042 41.4631 414.799 41.4631ZM411.187 73.098V44.8602H418.478V73.1145H411.187V73.098Z" fill="#36CD74"/>
<path d="M171.481 33.5585C176.9 33.5585 181.441 35.4642 185.07 39.2591C188.699 43.0705 190.522 47.7437 190.522 53.3282C190.522 58.9128 188.699 63.586 185.07 67.3974C181.441 71.2088 176.9 73.098 171.481 73.098H155.771V33.5585H171.481ZM171.481 65.6408C174.911 65.6408 177.695 64.4974 179.85 62.2271C182.004 59.9568 183.065 56.9905 183.065 53.3282C183.065 49.666 181.987 46.7162 179.85 44.4294C177.695 42.1591 174.911 41.0157 171.481 41.0157H163.577V65.6408H171.481Z" fill="#FEAD2E"/>
<path d="M203 49.7157C203.679 47.9094 204.806 46.5505 206.364 45.6557C207.922 44.7442 209.662 44.2968 211.584 44.2968V52.4334C209.363 52.1682 207.375 52.6157 205.618 53.7922C203.862 54.9522 202.983 56.8911 202.983 59.6088V73.1145H195.692V44.8602H202.983V49.7157H203Z" fill="#FEAD2E"/>
<path d="M238.811 69.5682C235.911 72.4517 232.365 73.8934 228.189 73.8934C224.013 73.8934 220.483 72.4517 217.599 69.5682C214.716 66.6848 213.274 63.1551 213.274 58.9791C213.274 54.8031 214.716 51.2734 217.599 48.39C220.483 45.5065 224.013 44.0648 228.189 44.0648C232.365 44.0648 235.911 45.5065 238.811 48.39C241.711 51.2734 243.153 54.8031 243.153 58.9791C243.153 63.1551 241.694 66.6848 238.811 69.5682ZM222.737 64.5637C224.178 66.0385 226.001 66.7677 228.189 66.7677C230.376 66.7677 232.199 66.0385 233.674 64.5637C235.149 63.0888 235.878 61.2328 235.878 58.9791C235.878 56.7254 235.149 54.8528 233.674 53.3945C232.199 51.9197 230.376 51.1905 228.189 51.1905C226.001 51.1905 224.178 51.9197 222.737 53.3945C221.278 54.8694 220.566 56.7254 220.566 58.9791C220.566 61.2328 221.295 63.1054 222.737 64.5637Z" fill="#FEAD2E"/>
<path d="M251.919 41.4631C250.709 41.4631 249.665 41.0157 248.787 40.1374C247.909 39.2591 247.461 38.2151 247.461 37.0054C247.461 35.7957 247.909 34.7517 248.787 33.8402C249.665 32.9288 250.709 32.4814 251.919 32.4814C253.129 32.4814 254.222 32.9288 255.117 33.8402C255.995 34.7517 256.443 35.7957 256.443 37.0054C256.443 38.2151 255.995 39.2591 255.117 40.1374C254.239 41.0157 253.162 41.4631 251.919 41.4631ZM248.306 73.098V44.8602H255.598V73.1145H248.306V73.098Z" fill="#FEAD2E"/>
<path d="M283.67 33.5585H290.961V73.098H283.67V69.7671C281.515 72.518 278.466 73.8934 274.522 73.8934C270.578 73.8934 267.463 72.4517 264.778 69.5682C262.077 66.6848 260.735 63.1551 260.735 58.9791C260.735 54.8031 262.077 51.2734 264.778 48.39C267.463 45.5065 270.711 44.0648 274.522 44.0648C278.334 44.0648 281.532 45.4402 283.67 48.1911V33.5585ZM270.247 64.7128C271.738 66.2042 273.611 66.95 275.865 66.95C278.118 66.95 279.991 66.2042 281.449 64.7128C282.924 63.2214 283.653 61.3157 283.653 58.9791C283.653 56.6425 282.924 54.7368 281.449 53.2454C279.974 51.754 278.118 51.0082 275.865 51.0082C273.611 51.0082 271.738 51.754 270.247 53.2454C268.755 54.7368 268.01 56.6425 268.01 58.9791C268.01 61.3157 268.755 63.2214 270.247 64.7128Z" fill="#FEAD2E"/>
<path d="M328.86 73.1145H319.878L305.76 54.5877V73.1145H297.971V33.5585H305.76V50.9917L319.315 33.5585H328.297L313.664 52.7648L328.86 73.098V73.1145Z" fill="#FEAD2E"/>
<path d="M351.298 44.8602H358.589V73.1145H351.298V69.7836C349.11 72.5345 346.045 73.9099 342.084 73.9099C338.123 73.9099 335.091 72.4682 332.39 69.5848C329.689 66.7014 328.346 63.1716 328.346 58.9956C328.346 54.8196 329.689 51.2899 332.39 48.4065C335.074 45.5231 338.306 44.0814 342.084 44.0814C346.045 44.0814 349.11 45.4568 351.298 48.2076V44.8768V44.8602ZM337.858 64.7128C339.333 66.2042 341.189 66.9499 343.443 66.9499C345.697 66.9499 347.569 66.2042 349.061 64.7128C350.552 63.2214 351.298 61.3156 351.298 58.9791C351.298 56.6425 350.552 54.7368 349.061 53.2454C347.569 51.7539 345.697 51.0082 343.443 51.0082C341.189 51.0082 339.317 51.7539 337.858 53.2454C336.383 54.7368 335.654 56.6425 335.654 58.9791C335.654 61.3156 336.383 63.2214 337.858 64.7128Z" fill="#FEAD2E"/>
<path d="M368.797 41.4631C367.587 41.4631 366.543 41.0157 365.665 40.1374C364.787 39.2591 364.339 38.2151 364.339 37.0054C364.339 35.7957 364.787 34.7517 365.665 33.8402C366.543 32.9288 367.587 32.4814 368.797 32.4814C370.007 32.4814 371.101 32.9288 371.995 33.8402C372.874 34.7517 373.321 35.7957 373.321 37.0054C373.321 38.2151 372.874 39.2591 371.995 40.1374C371.117 41.0157 370.04 41.4631 368.797 41.4631ZM365.185 73.098V44.8602H372.476V73.1145H365.185V73.098Z" fill="#FEAD2E"/>
<path d="M400.78 44.8602H407.906V71.7557C407.906 76.1305 406.464 79.4614 403.581 81.7482C400.697 84.0517 397.217 85.1951 393.157 85.1951C390.108 85.1951 387.423 84.6151 385.103 83.4385C382.783 82.2785 381.01 80.5551 379.767 78.3014L385.982 74.7385C387.407 77.3734 389.876 78.6991 393.389 78.6991C395.693 78.6991 397.499 78.1025 398.808 76.8928C400.134 75.6831 400.78 73.9762 400.78 71.7557V68.7065C398.626 71.5734 395.626 72.9985 391.749 72.9985C387.871 72.9985 384.407 71.59 381.723 68.7894C379.022 65.9888 377.679 62.5585 377.679 58.5317C377.679 54.5048 379.038 51.1242 381.739 48.3071C384.457 45.49 387.788 44.0648 391.732 44.0648C395.676 44.0648 398.626 45.49 400.763 48.3568V44.8602H400.78ZM387.191 64.0997C388.683 65.558 390.572 66.2705 392.875 66.2705C395.179 66.2705 397.068 65.5414 398.559 64.0997C400.051 62.658 400.797 60.802 400.797 58.5317C400.797 56.2614 400.051 54.4717 398.559 53.03C397.068 51.5882 395.179 50.8591 392.875 50.8591C390.572 50.8591 388.683 51.5882 387.191 53.03C385.7 54.4882 384.954 56.3111 384.954 58.5317C384.954 60.7522 385.7 62.6414 387.191 64.0997Z" fill="#FEAD2E"/>
<path d="M418.114 41.4631C416.904 41.4631 415.86 41.0157 414.982 40.1374C414.103 39.2591 413.656 38.2151 413.656 37.0054C413.656 35.7957 414.103 34.7517 414.982 33.8402C415.86 32.9288 416.904 32.4814 418.114 32.4814C419.323 32.4814 420.417 32.9288 421.312 33.8402C422.19 34.7517 422.638 35.7957 422.638 37.0054C422.638 38.2151 422.19 39.2591 421.312 40.1374C420.434 41.0157 419.357 41.4631 418.114 41.4631ZM414.501 73.098V44.8602H421.793V73.1145H414.501V73.098Z" fill="#FEAD2E"/>
<path d="M169.824 35.2156C175.243 35.2156 179.783 37.1214 183.413 40.9162C187.042 44.7276 188.865 49.4008 188.865 54.9854C188.865 60.5699 187.042 65.2431 183.413 69.0545C179.783 72.8659 175.243 74.7551 169.824 74.7551H154.114V35.2156H169.824ZM169.824 67.2979C173.254 67.2979 176.038 66.1545 178.193 63.8842C180.347 61.6139 181.407 58.6476 181.407 54.9854C181.407 51.3231 180.33 48.3734 178.193 46.0865C176.038 43.8162 173.254 42.6728 169.824 42.6728H161.919V67.2979H169.824Z" fill="white"/>
<path d="M201.343 51.3728C202.022 49.5665 203.149 48.2076 204.707 47.3128C206.265 46.4013 208.005 45.9539 209.927 45.9539V54.0905C207.706 53.8253 205.718 54.2728 203.961 55.4493C202.205 56.6093 201.326 58.5482 201.326 61.2659V74.7716H194.035V46.5173H201.326V51.3728H201.343Z" fill="white"/>
<path d="M237.154 71.2254C234.254 74.1088 230.707 75.5505 226.531 75.5505C222.355 75.5505 218.826 74.1088 215.942 71.2254C213.059 68.3419 211.617 64.8122 211.617 60.6362C211.617 56.4602 213.059 52.9305 215.942 50.0471C218.826 47.1636 222.355 45.7219 226.531 45.7219C230.707 45.7219 234.254 47.1636 237.154 50.0471C240.054 52.9305 241.495 56.4602 241.495 60.6362C241.495 64.8122 240.037 68.3419 237.154 71.2254ZM221.079 66.2208C222.521 67.6956 224.344 68.4248 226.531 68.4248C228.719 68.4248 230.542 67.6956 232.016 66.2208C233.491 64.7459 234.22 62.8899 234.22 60.6362C234.22 58.3825 233.491 56.5099 232.016 55.0516C230.542 53.5768 228.719 52.8476 226.531 52.8476C224.344 52.8476 222.521 53.5768 221.079 55.0516C219.621 56.5265 218.909 58.3825 218.909 60.6362C218.909 62.8899 219.638 64.7625 221.079 66.2208Z" fill="white"/>
<path d="M250.262 43.1202C249.052 43.1202 248.008 42.6728 247.13 41.7945C246.251 40.9162 245.804 39.8722 245.804 38.6625C245.804 37.4528 246.251 36.4088 247.13 35.4973C248.008 34.5859 249.052 34.1385 250.262 34.1385C251.471 34.1385 252.565 34.5859 253.46 35.4973C254.338 36.4088 254.786 37.4528 254.786 38.6625C254.786 39.8722 254.338 40.9162 253.46 41.7945C252.582 42.6728 251.505 43.1202 250.262 43.1202ZM246.649 74.7551V46.5173H253.941V74.7716H246.649V74.7551Z" fill="white"/>
<path d="M282.012 35.2156H289.304V74.7551H282.012V71.4242C279.858 74.1751 276.809 75.5505 272.865 75.5505C268.921 75.5505 265.806 74.1088 263.121 71.2253C260.42 68.3419 259.078 64.8122 259.078 60.6362C259.078 56.4602 260.42 52.9305 263.121 50.0471C265.806 47.1636 269.054 45.7219 272.865 45.7219C276.677 45.7219 279.875 47.0974 282.012 49.8482V35.2156ZM268.59 66.3699C270.081 67.8614 271.954 68.6071 274.207 68.6071C276.461 68.6071 278.334 67.8614 279.792 66.3699C281.267 64.8785 281.996 62.9728 281.996 60.6362C281.996 58.2996 281.267 56.3939 279.792 54.9025C278.317 53.4111 276.461 52.6654 274.207 52.6654C271.954 52.6654 270.081 53.4111 268.59 54.9025C267.098 56.3939 266.352 58.2996 266.352 60.6362C266.352 62.9728 267.098 64.8785 268.59 66.3699Z" fill="white"/>
<path d="M327.203 74.7716H318.221L304.102 56.2448V74.7716H296.314V35.2156H304.102V52.6488L317.658 35.2156H326.639L312.007 54.4219L327.203 74.7551V74.7716Z" fill="white"/>
<path d="M349.641 46.5173H356.932V74.7716H349.641V71.4407C347.453 74.1916 344.387 75.567 340.427 75.567C336.466 75.567 333.434 74.1253 330.733 71.2419C328.031 68.3585 326.689 64.8287 326.689 60.6527C326.689 56.4767 328.031 52.947 330.733 50.0636C333.417 47.1802 336.649 45.7385 340.427 45.7385C344.387 45.7385 347.453 47.1139 349.641 49.8647V46.5339V46.5173ZM336.201 66.3699C337.676 67.8613 339.532 68.607 341.786 68.607C344.039 68.607 345.912 67.8613 347.403 66.3699C348.895 64.8785 349.641 62.9727 349.641 60.6362C349.641 58.2996 348.895 56.3939 347.403 54.9025C345.912 53.411 344.039 52.6653 341.786 52.6653C339.532 52.6653 337.659 53.411 336.201 54.9025C334.726 56.3939 333.997 58.2996 333.997 60.6362C333.997 62.9727 334.726 64.8785 336.201 66.3699Z" fill="white"/>
<path d="M367.14 43.1202C365.93 43.1202 364.886 42.6728 364.008 41.7945C363.13 40.9162 362.682 39.8722 362.682 38.6625C362.682 37.4528 363.13 36.4088 364.008 35.4973C364.886 34.5859 365.93 34.1385 367.14 34.1385C368.35 34.1385 369.443 34.5859 370.338 35.4973C371.217 36.4088 371.664 37.4528 371.664 38.6625C371.664 39.8722 371.217 40.9162 370.338 41.7945C369.46 42.6728 368.383 43.1202 367.14 43.1202ZM363.527 74.7551V46.5173H370.819V74.7716H363.527V74.7551Z" fill="white"/>
<path d="M399.123 46.5174H406.248V73.4128C406.248 77.7876 404.807 81.1185 401.923 83.4054C399.04 85.7088 395.56 86.8522 391.5 86.8522C388.451 86.8522 385.766 86.2722 383.446 85.0956C381.126 83.9356 379.353 82.2122 378.11 79.9585L384.324 76.3956C385.75 79.0305 388.219 80.3562 391.732 80.3562C394.035 80.3562 395.842 79.7596 397.151 78.5499C398.477 77.3402 399.123 75.6333 399.123 73.4128V70.3636C396.969 73.2305 393.969 74.6556 390.091 74.6556C386.214 74.6556 382.75 73.2471 380.066 70.4465C377.365 67.6459 376.022 64.2156 376.022 60.1888C376.022 56.1619 377.381 52.7814 380.082 49.9642C382.8 47.1471 386.131 45.7219 390.075 45.7219C394.019 45.7219 396.968 47.1471 399.106 50.0139V46.5174H399.123ZM385.534 65.7568C387.026 67.2151 388.915 67.9276 391.218 67.9276C393.522 67.9276 395.411 67.1985 396.902 65.7568C398.394 64.3151 399.139 62.4591 399.139 60.1888C399.139 57.9185 398.394 56.1288 396.902 54.6871C395.411 53.2454 393.522 52.5162 391.218 52.5162C388.915 52.5162 387.026 53.2454 385.534 54.6871C384.043 56.1454 383.297 57.9682 383.297 60.1888C383.297 62.4094 384.043 64.2985 385.534 65.7568Z" fill="white"/>
<path d="M416.456 43.1202C415.247 43.1202 414.203 42.6728 413.324 41.7945C412.446 40.9162 411.999 39.8722 411.999 38.6625C411.999 37.4528 412.446 36.4088 413.324 35.4973C414.203 34.5859 415.247 34.1385 416.456 34.1385C417.666 34.1385 418.76 34.5859 419.655 35.4973C420.533 36.4088 420.98 37.4528 420.98 38.6625C420.98 39.8722 420.533 40.9162 419.655 41.7945C418.777 42.6728 417.699 43.1202 416.456 43.1202ZM412.844 74.7551V46.5173H420.135V74.7716H412.844V74.7551Z" fill="white"/>
<path d="M497.955 52.9802C499.695 51.0911 501.203 49.2848 502.446 47.5448C503.705 45.8048 504.633 44.0648 505.263 42.3248C505.892 40.5848 506.207 38.7288 506.207 36.79C506.207 35.398 505.942 34.0225 505.429 32.6637C504.898 31.3048 504.103 30.0619 503.026 28.9517C501.948 27.8414 500.639 26.9465 499.098 26.2837C497.557 25.6208 495.784 25.2894 493.762 25.2894C490.978 25.2894 488.575 25.9357 486.554 27.2282C484.532 28.5208 482.974 30.3768 481.897 32.8128C480.82 35.2488 480.273 38.0825 480.273 41.2808H468.043C468.043 36.0608 469.038 31.4042 471.026 27.3277C473.015 23.2511 475.931 20.0528 479.809 17.7162C483.67 15.3797 488.393 14.2197 493.978 14.2197C498.22 14.2197 501.915 14.8991 505.064 16.258C508.196 17.6168 510.798 19.3734 512.853 21.5442C514.907 23.6985 516.449 26.0682 517.459 28.6534C518.47 31.2385 518.967 33.7408 518.967 36.1768C518.967 40.0048 518.039 43.7002 516.2 47.2631C514.361 50.826 511.924 53.9911 508.942 56.7751L488.145 77.158H519.912V88.6585H464.099L497.971 53.0134L497.955 52.9802Z" fill="#E3632A"/>
<path d="M531.926 36.8728C533.815 32.2659 536.467 28.2888 539.93 24.9082C543.377 21.5276 547.421 18.8928 552.061 17.0202C556.701 15.1311 561.688 14.2031 567.058 14.2031C572.427 14.2031 577.614 15.1476 582.22 17.0202C586.827 18.8928 590.838 21.5276 594.301 24.9082C597.748 28.2888 600.416 32.2825 602.305 36.8728C604.194 41.4796 605.122 46.5173 605.122 52.0356C605.122 57.5539 604.178 62.5253 602.305 67.1985C600.416 71.8716 597.781 75.9151 594.367 79.3288C590.954 82.7425 586.927 85.4105 582.287 87.3328C577.647 89.2551 572.576 90.1996 567.074 90.1996C561.573 90.1996 556.584 89.2385 551.911 87.3328C547.238 85.4105 543.211 82.7591 539.831 79.3288C536.45 75.9151 533.815 71.8716 531.943 67.1985C530.054 62.5253 529.126 57.4711 529.126 52.0356C529.126 46.6002 530.07 41.4796 531.943 36.8728H531.926ZM545.349 65.4585C547.47 69.4025 550.42 72.4848 554.182 74.7054C557.943 76.9425 562.235 78.0528 567.041 78.0528C571.847 78.0528 576.222 76.9425 579.95 74.7054C583.679 72.4682 586.612 69.3859 588.733 65.4585C590.854 61.5145 591.915 57.0402 591.915 52.0356C591.915 47.0311 590.871 42.5402 588.783 38.5962C586.695 34.6522 583.778 31.5699 580.05 29.3493C576.321 27.1122 571.979 26.0019 567.041 26.0019C562.103 26.0019 557.943 27.1122 554.182 29.3493C550.42 31.5865 547.47 34.6688 545.349 38.5962C543.228 42.5402 542.167 47.0145 542.167 52.0356C542.167 57.0568 543.228 61.5311 545.349 65.4585Z" fill="#E3632A"/>
<path d="M644.91 52.9802C646.65 51.0911 648.158 49.2848 649.401 47.5448C650.661 45.8048 651.589 44.0648 652.218 42.3248C652.848 40.5848 653.163 38.7288 653.163 36.79C653.163 35.398 652.898 34.0225 652.384 32.6637C651.854 31.3048 651.058 30.0619 649.981 28.9517C648.904 27.8414 647.595 26.9465 646.054 26.2837C644.513 25.6208 642.739 25.2894 640.718 25.2894C637.934 25.2894 635.531 25.9357 633.509 27.2282C631.487 28.5208 629.93 30.3768 628.853 32.8128C627.775 35.2488 627.229 38.0825 627.229 41.2808H614.999C614.999 36.0608 615.993 31.4042 617.982 27.3277C619.97 23.2511 622.887 20.0528 626.765 17.7162C630.626 15.3797 635.349 14.2197 640.933 14.2197C645.175 14.2197 648.871 14.8991 652.019 16.258C655.151 17.6168 657.753 19.3734 659.808 21.5442C661.863 23.6985 663.404 26.0682 664.415 28.6534C665.426 31.2385 665.923 33.7408 665.923 36.1768C665.923 40.0048 664.995 43.7002 663.155 47.2631C661.316 50.826 658.88 53.9911 655.897 56.7751L635.1 77.158H666.867V88.6585H611.055L644.927 53.0134L644.91 52.9802Z" fill="#E3632A"/>
<path d="M708.047 52.9802C709.787 51.0911 711.295 49.2848 712.538 47.5448C713.798 45.8048 714.726 44.0648 715.355 42.3248C715.985 40.5848 716.3 38.7288 716.3 36.79C716.3 35.398 716.035 34.0225 715.521 32.6637C714.991 31.3048 714.195 30.0619 713.118 28.9517C712.041 27.8414 710.732 26.9465 709.191 26.2837C707.65 25.6208 705.877 25.2894 703.855 25.2894C701.071 25.2894 698.668 25.9357 696.646 27.2282C694.625 28.5208 693.067 30.3768 691.99 32.8128C690.913 35.2488 690.366 38.0825 690.366 41.2808H678.136C678.136 36.0608 679.13 31.4042 681.119 27.3277C683.107 23.2511 686.024 20.0528 689.902 17.7162C693.763 15.3797 698.486 14.2197 704.07 14.2197C708.313 14.2197 712.008 14.8991 715.157 16.258C718.289 17.6168 720.89 19.3734 722.945 21.5442C725 23.6985 726.541 26.0682 727.552 28.6534C728.563 31.2385 729.06 33.7408 729.06 36.1768C729.06 40.0048 728.132 43.7002 726.293 47.2631C724.453 50.826 722.017 53.9911 719.034 56.7751L698.237 77.158H730.005V88.6585H674.192L708.064 53.0134L708.047 52.9802Z" fill="#E3632A"/>
<path d="M496.298 54.6374C498.038 52.7483 499.546 50.942 500.789 49.202C502.048 47.462 502.976 45.722 503.606 43.982C504.235 42.242 504.55 40.386 504.55 38.4471C504.55 37.0551 504.285 35.6797 503.771 34.3208C503.241 32.962 502.446 31.7191 501.369 30.6088C500.291 29.4985 498.982 28.6037 497.441 27.9408C495.9 27.278 494.127 26.9465 492.105 26.9465C489.321 26.9465 486.918 27.5928 484.897 28.8854C482.875 30.178 481.317 32.034 480.24 34.47C479.163 36.906 478.616 39.7397 478.616 42.938H466.386C466.386 37.718 467.381 33.0614 469.369 28.9848C471.358 24.9083 474.274 21.71 478.152 19.3734C482.013 17.0368 486.736 15.8768 492.321 15.8768C496.563 15.8768 500.258 16.5563 503.407 17.9151C506.539 19.274 509.141 21.0305 511.195 23.2014C513.25 25.3557 514.791 27.7254 515.802 30.3105C516.813 32.8957 517.31 35.398 517.31 37.834C517.31 41.662 516.382 45.3574 514.543 48.9203C512.703 52.4831 510.267 55.6483 507.285 58.4323L486.487 78.8151H518.255V90.3157H462.442L496.314 54.6705L496.298 54.6374Z" fill="#36CD74"/>
<path d="M530.269 38.5299C532.158 33.9231 534.81 29.9459 538.273 26.5654C541.72 23.1848 545.763 20.5499 550.403 18.6774C555.043 16.7882 560.031 15.8602 565.401 15.8602C570.77 15.8602 575.957 16.8048 580.563 18.6774C585.17 20.5499 589.181 23.1848 592.644 26.5654C596.091 29.9459 598.759 33.9397 600.648 38.5299C602.537 43.1368 603.465 48.1745 603.465 53.6928C603.465 59.2111 602.521 64.1825 600.648 68.8557C598.759 73.5288 596.124 77.5722 592.71 80.9859C589.297 84.3997 585.27 87.0677 580.63 88.9899C575.99 90.9122 570.919 91.8568 565.417 91.8568C559.915 91.8568 554.927 90.8957 550.254 88.9899C545.581 87.0677 541.554 84.4162 538.174 80.9859C534.793 77.5722 532.158 73.5288 530.286 68.8557C528.397 64.1825 527.469 59.1282 527.469 53.6928C527.469 48.2574 528.413 43.1368 530.286 38.5299H530.269ZM543.692 67.1157C545.813 71.0597 548.763 74.1419 552.525 76.3625C556.286 78.5997 560.578 79.7099 565.384 79.7099C570.19 79.7099 574.565 78.5997 578.293 76.3625C582.022 74.1254 584.955 71.0431 587.076 67.1157C589.197 63.1717 590.258 58.6974 590.258 53.6928C590.258 48.6882 589.214 44.1974 587.126 40.2534C585.038 36.3094 582.121 33.2271 578.393 31.0065C574.664 28.7694 570.322 27.6591 565.384 27.6591C560.446 27.6591 556.286 28.7694 552.525 31.0065C548.763 33.2437 545.813 36.3259 543.692 40.2534C541.571 44.1974 540.51 48.6717 540.51 53.6928C540.51 58.7139 541.571 63.1882 543.692 67.1157Z" fill="#36CD74"/>
<path d="M643.253 54.6374C644.993 52.7483 646.501 50.942 647.744 49.202C649.003 47.462 649.931 45.722 650.561 43.982C651.191 42.242 651.506 40.386 651.506 38.4471C651.506 37.0551 651.241 35.6797 650.727 34.3208C650.197 32.962 649.401 31.7191 648.324 30.6088C647.247 29.4985 645.938 28.6037 644.397 27.9408C642.855 27.278 641.082 26.9465 639.061 26.9465C636.277 26.9465 633.874 27.5928 631.852 28.8854C629.83 30.178 628.273 32.034 627.195 34.47C626.118 36.906 625.571 39.7397 625.571 42.938H613.342C613.342 37.718 614.336 33.0614 616.325 28.9848C618.313 24.9083 621.23 21.71 625.107 19.3734C628.969 17.0368 633.691 15.8768 639.276 15.8768C643.518 15.8768 647.214 16.5563 650.362 17.9151C653.494 19.274 656.096 21.0305 658.151 23.2014C660.206 25.3557 661.747 27.7254 662.758 30.3105C663.769 32.8957 664.266 35.398 664.266 37.834C664.266 41.662 663.338 45.3574 661.498 48.9203C659.659 52.4831 657.223 55.6483 654.24 58.4323L633.443 78.8151H665.21V90.3157H609.398L643.27 54.6705L643.253 54.6374Z" fill="#36CD74"/>
<path d="M706.39 54.6374C708.13 52.7483 709.638 50.942 710.881 49.202C712.141 47.462 713.069 45.722 713.698 43.982C714.328 42.242 714.643 40.386 714.643 38.4471C714.643 37.0551 714.378 35.6797 713.864 34.3208C713.334 32.962 712.538 31.7191 711.461 30.6088C710.384 29.4985 709.075 28.6037 707.534 27.9408C705.993 27.278 704.219 26.9465 702.198 26.9465C699.414 26.9465 697.011 27.5928 694.989 28.8854C692.967 30.178 691.41 32.034 690.333 34.47C689.255 36.906 688.709 39.7397 688.709 42.938H676.479C676.479 37.718 677.473 33.0614 679.462 28.9848C681.45 24.9083 684.367 21.71 688.245 19.3734C692.106 17.0368 696.829 15.8768 702.413 15.8768C706.655 15.8768 710.351 16.5563 713.499 17.9151C716.631 19.274 719.233 21.0305 721.288 23.2014C723.343 25.3557 724.884 27.7254 725.895 30.3105C726.906 32.8957 727.403 35.398 727.403 37.834C727.403 41.662 726.475 45.3574 724.635 48.9203C722.796 52.4831 720.36 55.6483 717.377 58.4323L696.58 78.8151H728.347V90.3157H672.535L706.407 54.6705L706.39 54.6374Z" fill="#36CD74"/>
<path d="M499.612 54.6374C501.352 52.7483 502.86 50.942 504.103 49.202C505.362 47.462 506.29 45.722 506.92 43.982C507.55 42.242 507.865 40.386 507.865 38.4471C507.865 37.0551 507.599 35.6797 507.086 34.3208C506.555 32.962 505.76 31.7191 504.683 30.6088C503.606 29.4985 502.297 28.6037 500.755 27.9408C499.214 27.278 497.441 26.9465 495.419 26.9465C492.635 26.9465 490.233 27.5928 488.211 28.8854C486.189 30.178 484.631 32.034 483.554 34.47C482.477 36.906 481.93 39.7397 481.93 42.938H469.701C469.701 37.718 470.695 33.0614 472.683 28.9848C474.672 24.9083 477.589 21.71 481.466 19.3734C485.327 17.0368 490.05 15.8768 495.635 15.8768C499.877 15.8768 503.573 16.5563 506.721 17.9151C509.853 19.274 512.455 21.0305 514.51 23.2014C516.565 25.3557 518.106 27.7254 519.117 30.3105C520.127 32.8957 520.625 35.398 520.625 37.834C520.625 41.662 519.697 45.3574 517.857 48.9203C516.018 52.4831 513.582 55.6483 510.599 58.4323L489.802 78.8151H521.569V90.3157H465.757L499.629 54.6705L499.612 54.6374Z" fill="#FEAD2E"/>
<path d="M533.583 38.5299C535.473 33.9231 538.124 29.9459 541.587 26.5654C545.034 23.1848 549.078 20.5499 553.718 18.6774C558.358 16.7882 563.346 15.8602 568.715 15.8602C574.084 15.8602 579.271 16.8048 583.878 18.6774C588.485 20.5499 592.495 23.1848 595.958 26.5654C599.405 29.9459 602.073 33.9397 603.962 38.5299C605.851 43.1368 606.779 48.1745 606.779 53.6928C606.779 59.2111 605.835 64.1825 603.962 68.8557C602.073 73.5288 599.438 77.5722 596.025 80.9859C592.611 84.3997 588.584 87.0677 583.944 88.9899C579.304 90.9122 574.233 91.8568 568.731 91.8568C563.23 91.8568 558.242 90.8957 553.569 88.9899C548.895 87.0677 544.869 84.4162 541.488 80.9859C538.107 77.5722 535.473 73.5288 533.6 68.8557C531.711 64.1825 530.783 59.1282 530.783 53.6928C530.783 48.2574 531.727 43.1368 533.6 38.5299H533.583ZM547.006 67.1157C549.127 71.0597 552.077 74.1419 555.839 76.3625C559.601 78.5997 563.893 79.7099 568.698 79.7099C573.504 79.7099 577.879 78.5997 581.607 76.3625C585.336 74.1254 588.269 71.0431 590.39 67.1157C592.511 63.1717 593.572 58.6974 593.572 53.6928C593.572 48.6882 592.528 44.1974 590.44 40.2534C588.352 36.3094 585.435 33.2271 581.707 31.0065C577.978 28.7694 573.637 27.6591 568.698 27.6591C563.76 27.6591 559.601 28.7694 555.839 31.0065C552.077 33.2437 549.127 36.3259 547.006 40.2534C544.885 44.1974 543.825 48.6717 543.825 53.6928C543.825 58.7139 544.885 63.1882 547.006 67.1157Z" fill="#FEAD2E"/>
<path d="M646.568 54.6374C648.308 52.7483 649.815 50.942 651.058 49.202C652.318 47.462 653.246 45.722 653.875 43.982C654.505 42.242 654.82 40.386 654.82 38.4471C654.82 37.0551 654.555 35.6797 654.041 34.3208C653.511 32.962 652.715 31.7191 651.638 30.6088C650.561 29.4985 649.252 28.6037 647.711 27.9408C646.17 27.278 644.397 26.9465 642.375 26.9465C639.591 26.9465 637.188 27.5928 635.166 28.8854C633.145 30.178 631.587 32.034 630.51 34.47C629.433 36.906 628.886 39.7397 628.886 42.938H616.656C616.656 37.718 617.65 33.0614 619.639 28.9848C621.628 24.9083 624.544 21.71 628.422 19.3734C632.283 17.0368 637.006 15.8768 642.59 15.8768C646.833 15.8768 650.528 16.5563 653.677 17.9151C656.809 19.274 659.41 21.0305 661.465 23.2014C663.52 25.3557 665.061 27.7254 666.072 30.3105C667.083 32.8957 667.58 35.398 667.58 37.834C667.58 41.662 666.652 45.3574 664.813 48.9203C662.973 52.4831 660.537 55.6483 657.554 58.4323L636.757 78.8151H668.525V90.3157H612.712L646.584 54.6705L646.568 54.6374Z" fill="#FEAD2E"/>
<path d="M709.705 54.6374C711.445 52.7483 712.953 50.942 714.195 49.202C715.455 47.462 716.383 45.722 717.013 43.982C717.642 42.242 717.957 40.386 717.957 38.4471C717.957 37.0551 717.692 35.6797 717.178 34.3208C716.648 32.962 715.853 31.7191 714.775 30.6088C713.698 29.4985 712.389 28.6037 710.848 27.9408C709.307 27.278 707.534 26.9465 705.512 26.9465C702.728 26.9465 700.325 27.5928 698.303 28.8854C696.282 30.178 694.724 32.034 693.647 34.47C692.57 36.906 692.023 39.7397 692.023 42.938H679.793C679.793 37.718 680.787 33.0614 682.776 28.9848C684.765 24.9083 687.681 21.71 691.559 19.3734C695.42 17.0368 700.143 15.8768 705.727 15.8768C709.97 15.8768 713.665 16.5563 716.814 17.9151C719.946 19.274 722.547 21.0305 724.602 23.2014C726.657 25.3557 728.198 27.7254 729.209 30.3105C730.22 32.8957 730.717 35.398 730.717 37.834C730.717 41.662 729.789 45.3574 727.95 48.9203C726.11 52.4831 723.674 55.6483 720.691 58.4323L699.894 78.8151H731.662V90.3157H675.849L709.721 54.6705L709.705 54.6374Z" fill="#FEAD2E"/>
<path d="M497.955 56.2945C499.695 54.4054 501.203 52.5991 502.446 50.8591C503.705 49.1191 504.633 47.3791 505.263 45.6391C505.892 43.8991 506.207 42.0431 506.207 40.1042C506.207 38.7122 505.942 37.3368 505.429 35.9779C504.898 34.6191 504.103 33.3762 503.026 32.2659C501.948 31.1556 500.639 30.2608 499.098 29.5979C497.557 28.9351 495.784 28.6037 493.762 28.6037C490.978 28.6037 488.575 29.2499 486.554 30.5425C484.532 31.8351 482.974 33.6911 481.897 36.1271C480.82 38.5631 480.273 41.3968 480.273 44.5951H468.043C468.043 39.3751 469.038 34.7185 471.026 30.6419C473.015 26.5654 475.931 23.3671 479.809 21.0305C483.67 18.6939 488.393 17.5339 493.978 17.5339C498.22 17.5339 501.915 18.2134 505.064 19.5722C508.196 20.9311 510.798 22.6876 512.853 24.8585C514.907 27.0128 516.449 29.3825 517.459 31.9677C518.47 34.5528 518.967 37.0551 518.967 39.4911C518.967 43.3191 518.039 47.0145 516.2 50.5774C514.361 54.1402 511.924 57.3054 508.942 60.0894L488.145 80.4722H519.912V91.9728H464.099L497.971 56.3277L497.955 56.2945Z" fill="white"/>
<path d="M531.926 40.187C533.815 35.5802 536.467 31.6031 539.93 28.2225C543.377 24.8419 547.421 22.207 552.061 20.3345C556.701 18.4453 561.688 17.5173 567.058 17.5173C572.427 17.5173 577.614 18.4619 582.22 20.3345C586.827 22.207 590.838 24.8419 594.301 28.2225C597.748 31.6031 600.416 35.5968 602.305 40.187C604.194 44.7939 605.122 49.8316 605.122 55.3499C605.122 60.8682 604.178 65.8396 602.305 70.5128C600.416 75.1859 597.781 79.2293 594.367 82.6431C590.954 86.0568 586.927 88.7248 582.287 90.647C577.647 92.5693 572.576 93.5139 567.074 93.5139C561.573 93.5139 556.584 92.5528 551.911 90.647C547.238 88.7248 543.211 86.0733 539.831 82.6431C536.45 79.2293 533.815 75.1859 531.943 70.5128C530.054 65.8396 529.126 60.7853 529.126 55.3499C529.126 49.9145 530.07 44.7939 531.943 40.187H531.926ZM545.349 68.7728C547.47 72.7168 550.42 75.7991 554.182 78.0196C557.943 80.2568 562.235 81.367 567.041 81.367C571.847 81.367 576.222 80.2568 579.95 78.0196C583.679 75.7825 586.612 72.7002 588.733 68.7728C590.854 64.8288 591.915 60.3545 591.915 55.3499C591.915 50.3453 590.871 45.8545 588.783 41.9105C586.695 37.9665 583.778 34.8842 580.05 32.6636C576.321 30.4265 571.979 29.3162 567.041 29.3162C562.103 29.3162 557.943 30.4265 554.182 32.6636C550.42 34.9008 547.47 37.9831 545.349 41.9105C543.228 45.8545 542.167 50.3288 542.167 55.3499C542.167 60.3711 543.228 64.8453 545.349 68.7728Z" fill="white"/>
<path d="M644.91 56.2945C646.65 54.4054 648.158 52.5991 649.401 50.8591C650.661 49.1191 651.589 47.3791 652.218 45.6391C652.848 43.8991 653.163 42.0431 653.163 40.1042C653.163 38.7122 652.898 37.3368 652.384 35.9779C651.854 34.6191 651.058 33.3762 649.981 32.2659C648.904 31.1556 647.595 30.2608 646.054 29.5979C644.513 28.9351 642.739 28.6037 640.718 28.6037C637.934 28.6037 635.531 29.2499 633.509 30.5425C631.487 31.8351 629.93 33.6911 628.853 36.1271C627.775 38.5631 627.229 41.3968 627.229 44.5951H614.999C614.999 39.3751 615.993 34.7185 617.982 30.6419C619.97 26.5654 622.887 23.3671 626.765 21.0305C630.626 18.6939 635.349 17.5339 640.933 17.5339C645.175 17.5339 648.871 18.2134 652.019 19.5722C655.151 20.9311 657.753 22.6876 659.808 24.8585C661.863 27.0128 663.404 29.3825 664.415 31.9677C665.426 34.5528 665.923 37.0551 665.923 39.4911C665.923 43.3191 664.995 47.0145 663.155 50.5774C661.316 54.1402 658.88 57.3054 655.897 60.0894L635.1 80.4722H666.867V91.9728H611.055L644.927 56.3277L644.91 56.2945Z" fill="white"/>
<path d="M708.047 56.2945C709.787 54.4054 711.295 52.5991 712.538 50.8591C713.798 49.1191 714.726 47.3791 715.355 45.6391C715.985 43.8991 716.3 42.0431 716.3 40.1042C716.3 38.7122 716.035 37.3368 715.521 35.9779C714.991 34.6191 714.195 33.3762 713.118 32.2659C712.041 31.1556 710.732 30.2608 709.191 29.5979C707.65 28.9351 705.877 28.6037 703.855 28.6037C701.071 28.6037 698.668 29.2499 696.646 30.5425C694.625 31.8351 693.067 33.6911 691.99 36.1271C690.913 38.5631 690.366 41.3968 690.366 44.5951H678.136C678.136 39.3751 679.13 34.7185 681.119 30.6419C683.107 26.5654 686.024 23.3671 689.902 21.0305C693.763 18.6939 698.486 17.5339 704.07 17.5339C708.313 17.5339 712.008 18.2134 715.157 19.5722C718.289 20.9311 720.89 22.6876 722.945 24.8585C725 27.0128 726.541 29.3825 727.552 31.9677C728.563 34.5528 729.06 37.0551 729.06 39.4911C729.06 43.3191 728.132 47.0145 726.293 50.5774C724.453 54.1402 722.017 57.3054 719.034 60.0894L698.237 80.4722H730.005V91.9728H674.192L708.064 56.3277L708.047 56.2945Z" fill="white"/>
</svg>
